<?xml version="1.0" standalone="no"?>
<!DOCTYPE svg PUBLIC "-//W3C//DTD SVG 20010904//EN"
 "http://www.w3.org/TR/2001/REC-SVG-20010904/DTD/svg10.dtd">
<svg version="1.0" xmlns="http://www.w3.org/2000/svg"
 width="16.000000pt" height="16.000000pt" viewBox="0 0 16.000000 16.000000"
 preserveAspectRatio="xMidYMid meet">
<metadata>
Created by potrace 1.11, written by Peter Selinger 2001-2013
</metadata>
<g transform="translate(0.000000,16.000000) scale(0.000533,-0.000533)"
fill="#000000" stroke="none">
<path d="M8847 26104 c-1 -1 -69 -5 -152 -8 -82 -4 -166 -9 -185 -11 -19 -2
-69 -6 -110 -10 -41 -3 -86 -7 -100 -10 -14 -2 -47 -7 -75 -10 -73 -9 -248
-35 -265 -40 -8 -2 -32 -6 -52 -9 -21 -3 -81 -15 -135 -27 -54 -12 -109 -23
-122 -26 -14 -2 -68 -15 -120 -29 -53 -14 -114 -30 -136 -35 -55 -13 -279 -84
-395 -124 -311 -108 -657 -266 -970 -443 -141 -80 -384 -232 -388 -243 -2 -5
-8 -9 -13 -9 -9 0 -184 -123 -264 -185 -174 -135 -257 -204 -364 -300 -203
-182 -444 -427 -566 -575 -21 -25 -40 -47 -44 -50 -4 -3 -31 -36 -61 -75 -30
-38 -57 -72 -61 -75 -14 -12 -199 -265 -270 -371 -87 -130 -259 -414 -259
-428 0 -5 -3 -11 -7 -13 -5 -1 -23 -32 -41 -68 -18 -36 -37 -72 -42 -80 -26
-42 -138 -280 -200 -425 -20 -47 -84 -208 -86 -215 0 -3 -5 -16 -11 -30 -116
-292 -262 -862 -308 -1200 -3 -25 -8 -56 -10 -70 -2 -14 -6 -47 -10 -75 -3
-27 -7 -66 -10 -85 -2 -19 -6 -60 -9 -90 -3 -30 -9 -93 -13 -140 -16 -173 -8
-965 12 -1169 2 -25 7 -75 9 -111 15 -178 18 -210 26 -275 5 -38 12 -97 15
-130 8 -80 21 -173 51 -365 20 -128 47 -289 59 -350 3 -14 10 -50 15 -80 17
-86 49 -237 70 -325 10 -44 21 -91 24 -105 3 -14 10 -45 17 -70 6 -25 12 -52
14 -60 2 -8 11 -44 20 -80 9 -36 19 -72 21 -80 10 -43 54 -203 70 -255 10 -33
19 -62 19 -65 21 -86 185 -592 247 -760 128 -351 287 -743 407 -1003 23 -49
41 -90 41 -92 0 -14 272 -569 373 -760 107 -204 169 -320 177 -330 4 -5 22
-37 40 -70 62 -115 257 -447 357 -610 41 -66 80 -129 86 -139 217 -358 762
-1153 990 -1446 7 -9 25 -33 41 -55 17 -22 32 -42 35 -45 4 -3 52 -66 107
-140 56 -74 111 -146 123 -160 11 -14 24 -29 28 -35 5 -5 42 -53 82 -105 41
-52 77 -97 80 -100 4 -3 33 -39 66 -80 33 -41 67 -84 76 -95 10 -11 77 -92
150 -180 183 -221 567 -667 598 -695 4 -3 42 -45 86 -95 44 -49 87 -97 95
-105 8 -9 60 -66 115 -126 55 -60 136 -147 180 -193 44 -47 118 -126 165 -176
112 -119 946 -953 1081 -1080 113 -107 307 -288 403 -376 32 -30 77 -71 99
-91 21 -20 71 -65 110 -100 38 -35 75 -68 81 -73 41 -38 316 -283 381 -340 44
-38 82 -72 85 -75 3 -3 37 -32 75 -65 39 -33 75 -64 81 -70 6 -5 35 -30 64
-54 29 -25 58 -50 64 -56 6 -6 81 -69 166 -140 85 -71 160 -134 166 -139 6 -6
28 -25 50 -43 21 -17 86 -70 144 -117 126 -103 674 -543 711 -571 15 -11 114
-88 220 -171 310 -241 934 -705 1149 -854 19 -14 40 -28 45 -33 9 -8 81 -59
190 -135 22 -16 128 -88 235 -162 107 -74 197 -137 200 -140 3 -3 13 -9 22
-15 9 -5 76 -50 150 -100 73 -49 137 -92 143 -94 5 -2 14 -8 20 -13 21 -19
431 -283 607 -392 l78 -48 77 48 c261 161 798 512 1020 668 40 28 118 83 175
121 117 80 596 420 702 499 335 248 548 407 760 570 136 105 273 210 302 232
30 23 71 55 91 71 21 17 155 124 298 238 143 114 265 213 270 219 6 6 57 49
115 96 58 46 116 94 130 106 24 21 163 138 205 172 11 10 114 98 229 197 115
99 230 197 255 219 42 35 142 124 211 186 15 14 55 50 90 80 34 30 72 64 84
75 12 11 62 56 110 100 129 117 134 121 246 225 56 52 119 110 139 129 38 35
269 255 413 393 287 274 837 835 1133 1153 114 123 222 240 237 257 23 26 150
168 163 182 51 54 412 468 447 514 15 19 42 51 60 71 19 20 62 72 98 116 36
44 71 87 79 95 8 8 94 114 190 235 97 121 178 222 181 225 7 6 92 117 249 324
97 126 405 547 451 616 8 12 22 32 31 44 170 229 669 1005 864 1344 60 104
235 414 247 437 9 17 31 57 49 90 199 357 489 964 673 1410 81 195 79 188 82
200 1 6 19 51 39 100 154 375 367 1035 481 1490 14 55 30 118 35 140 6 22 13
51 15 65 3 14 11 50 19 80 30 118 114 546 130 660 4 25 14 89 20 119 1 9 5 34
9 56 3 22 8 58 11 80 10 66 15 98 20 145 3 25 7 61 10 80 3 19 7 55 9 80 2 25
7 65 10 90 6 51 15 142 22 246 3 39 7 88 9 110 27 234 27 1121 1 1284 -3 14
-7 57 -11 95 -3 39 -8 84 -10 100 -2 17 -6 48 -9 70 -19 152 -75 449 -116 610
-11 44 -22 87 -24 96 -22 89 -73 259 -111 369 -25 74 -48 142 -49 150 -13 55
-240 588 -267 625 -3 6 -34 62 -66 125 -50 96 -123 226 -176 315 -165 274
-440 647 -652 884 -157 176 -443 459 -571 564 -10 9 -62 51 -114 95 -52 43
-144 115 -205 160 -60 45 -115 86 -121 91 -31 26 -294 197 -404 263 -278 166
-524 289 -831 414 -312 127 -641 228 -989 305 -52 11 -108 22 -124 24 -15 3
-35 7 -45 9 -9 3 -36 8 -60 11 -23 3 -46 7 -50 9 -3 2 -31 7 -62 10 -31 4 -65
8 -76 10 -10 2 -46 7 -78 11 -33 4 -69 9 -80 11 -11 2 -54 7 -95 10 -41 3 -97
7 -125 10 -275 23 -745 22 -965 -1 -19 -2 -69 -6 -110 -10 -41 -3 -86 -7 -100
-10 -14 -2 -47 -7 -75 -10 -73 -9 -248 -35 -265 -40 -8 -2 -32 -6 -52 -9 -21
-3 -81 -15 -135 -27 -54 -12 -109 -23 -122 -26 -38 -6 -289 -73 -381 -100
-456 -135 -877 -321 -1365 -603 -209 -120 -642 -432 -814 -585 -234 -208 -370
-340 -531 -516 -243 -266 -419 -494 -615 -794 -84 -129 -110 -171 -202 -333
-51 -90 -196 -379 -237 -472 -21 -47 -44 -99 -52 -116 -69 -154 -189 -496
-250 -712 -51 -181 -120 -487 -139 -616 -3 -21 -7 -48 -10 -60 -6 -29 -16 -94
-20 -136 -3 -19 -7 -53 -9 -75 -3 -22 -8 -65 -12 -95 -12 -116 -20 -136 -23
-63 -1 27 -3 59 -5 73 -2 14 -6 50 -10 80 -4 30 -9 66 -11 80 -2 14 -7 45 -10
70 -3 25 -10 68 -15 95 -5 28 -12 66 -15 85 -3 19 -15 80 -26 135 -11 55 -23
109 -25 120 -2 11 -13 56 -24 100 -11 44 -22 87 -24 96 -33 132 -112 384 -168
539 -299 816 -778 1566 -1394 2184 -546 547 -1205 995 -1894 1286 -69 29 -134
56 -145 61 -70 30 -510 183 -510 178 0 -1 -25 5 -55 14 -77 22 -282 75 -311
81 -13 2 -45 9 -72 15 -26 6 -64 14 -85 17 -20 3 -40 8 -43 10 -4 2 -31 6 -60
10 -30 3 -58 9 -62 11 -5 3 -25 7 -45 9 -19 2 -83 10 -141 19 -154 23 -170 25
-236 30 -33 3 -87 7 -120 10 -166 13 -277 17 -448 19 -103 1 -189 1 -190 0z"/>
</g>
</svg>
